<svg width="513" height="512" viewBox="0 0 513 512" fill="none" xmlns="http://www.w3.org/2000/svg">
<path d="M48.9482 1.05402H384.59C410.721 1.05426 431.852 21.694 431.852 46.8753V465.444C431.852 490.625 410.721 511.265 384.59 511.265H48.9482C22.8268 511.265 1.68652 490.625 1.68652 465.444V46.8753C1.68652 21.6941 22.8268 1.05424 48.9482 1.05402Z" fill="#E3E3E3" stroke="#ACB8B9" stroke-width="1.37338"/>
<path d="M337.037 246.444H62.3608V287.645H337.037V246.444Z" fill="#868686"/>
<path d="M361.118 325.889H62.3608V367.131H361.118V325.889Z" fill="#868686"/>
<path d="M190.109 405.375H62.3608V445.611H190.109V405.375Z" fill="#868686"/>
<path d="M1 444.726V467.135C1 491.784 22.4666 511.952 48.9487 511.952H384.589C411.081 511.952 432.538 491.784 432.538 467.135V444.726C432.538 469.376 411.081 489.543 384.589 489.543H48.9487C22.4666 489.543 1 469.376 1 444.726Z" fill="#8D9193"/>
<path d="M170.58 205.06L167.78 118.831L166.73 84.4091L159.379 107.746L142.46 159.67H124.49L109.205 107.746L102.787 84.4091L101.97 118.131L99.4033 205.06H75.0164L82.4841 52.5545H114.922L128.341 95.8441L134.758 120.231L141.176 97.2443L155.295 52.5545H188.316L195.901 205.06H170.58Z" fill="#1A73E8"/>
<path d="M162.34 205.06L159.54 118.831L158.49 84.4091L151.138 107.746L134.219 159.67H116.25L100.964 107.746L94.5469 84.4091L93.7301 118.131L91.163 205.06H66.7762L74.2439 52.5545H106.682L120.101 95.8441L126.518 120.231L132.936 97.2443L147.055 52.5545H180.076L187.66 205.06H162.34Z" fill="#1A73E8"/>
<path d="M355.411 126.882C355.411 138.706 353.933 149.441 350.977 159.087C348.099 168.733 343.548 176.978 337.325 183.824C331.18 190.591 323.284 195.842 313.639 199.576C303.993 203.232 292.441 205.06 278.983 205.06H240.245V52.5545H285.401C297.069 52.5545 307.26 54.0325 315.972 56.9885C324.762 59.8667 332.075 64.3395 337.909 70.4071C343.743 76.4746 348.099 84.1758 350.977 93.5104C353.933 102.845 355.411 113.969 355.411 126.882ZM324.607 128.749C324.607 120.503 323.946 113.152 322.623 106.696C321.301 100.239 319.045 94.794 315.856 90.36C312.744 85.8482 308.543 82.4255 303.254 80.0918C297.964 77.7582 291.391 76.5913 283.534 76.5913H268.949V181.023H281.551C295.63 181.023 306.326 176.823 313.639 168.421C320.951 160.02 324.607 146.796 324.607 128.749Z" fill="#1A73E8"/>
<path d="M347.858 126.882C347.858 138.706 346.38 149.441 343.424 159.087C340.546 168.733 335.995 176.978 329.772 183.824C323.627 190.591 315.731 195.842 306.085 199.576C296.439 203.232 284.888 205.06 271.43 205.06H232.691V52.5545H277.848C289.516 52.5545 299.706 54.0325 308.419 56.9885C317.209 59.8667 324.521 64.3395 330.355 70.4071C336.189 76.4746 340.546 84.1758 343.424 93.5104C346.38 102.845 347.858 113.969 347.858 126.882ZM317.053 128.749C317.053 120.503 316.392 113.152 315.07 106.696C313.747 100.239 311.491 94.794 308.302 90.36C305.191 85.8482 300.99 82.4255 295.7 80.0918C290.411 77.7582 283.837 76.5913 275.981 76.5913H261.395V181.023H273.997C288.077 181.023 298.773 176.823 306.085 168.421C313.397 160.02 317.053 146.796 317.053 128.749Z" fill="#1A73E8"/>
<path d="M399.705 170.27L216.805 353.166L205.475 364.496L189.289 380.681L189.289 445.423L254.032 445.423L270.218 429.238L281.549 417.908L464.449 235.012L399.705 170.27Z" fill="#ECF0F1"/>
<path d="M432.077 202.641L189.289 445.423L254.033 445.423L270.218 429.238L281.549 417.908L464.449 235.012L432.077 202.641Z" fill="#BDC3C7"/>
<path d="M448.262 251.199L383.518 186.457L205.474 364.497L270.217 429.239L448.262 251.199Z" fill="#E67E22"/>
<path d="M480.635 154.084C462.749 136.199 433.696 136.28 415.891 154.084L399.705 170.27L464.449 235.012L480.635 218.826C498.439 201.022 498.52 171.969 480.635 154.084Z" fill="#7F8C8D"/>
<path d="M189.193 400.007L189.29 445.423L234.707 445.52L211.95 422.763L189.193 400.007Z" fill="#34495E"/>
<path d="M211.95 422.764L189.29 445.424L234.707 445.52L211.95 422.764Z" fill="#2C3E50"/>
<path d="M480.634 154.084C462.749 136.199 433.696 136.28 415.892 154.084L399.706 170.269L432.077 202.64L480.634 154.084Z" fill="#95A5A6"/>
<path d="M448.262 251.199L415.89 218.828L237.846 396.868L270.217 429.239L448.262 251.199Z" fill="#D35400"/>
</svg>
