<svg width="1024" height="1024" viewBox="0 0 1024 1024" fill="none" xmlns="http://www.w3.org/2000/svg">
<path d="M267.667 140H734.333C770.598 140 800 170.013 800 206.728V816.272C800 852.987 770.598 883 734.333 883H267.667C231.416 883 202 852.987 202 816.272V206.728C202 170.013 231.416 140 267.667 140Z" fill="#F0F0F0" stroke="#ACB8B9" stroke-width="2"/>
<path d="M701 437.587H301V470.921H701V437.587Z" fill="#BDC3C7"/>
<path d="M701 522.921H301V556.254H701V522.921Z" fill="#BDC3C7"/>
<path d="M701 608.254H301V641.587H701V608.254Z" fill="#BDC3C7"/>
<path d="M434.333 693.587H301V726.921H434.333V693.587Z" fill="#BDC3C7"/>
<path d="M201 786.103V818.735C201 854.631 230.847 884 267.667 884H734.333C771.167 884 801 854.631 801 818.735V786.103C801 821.998 771.167 851.368 734.333 851.368H267.667C230.847 851.368 201 821.998 201 786.103Z" fill="#ACB4B9"/>
<path d="M739.597 335.145L473.252 595.89L456.753 612.042L433.182 635.117V727.416H527.464L551.034 704.341L567.534 688.189L833.878 427.444L739.597 335.145Z" fill="#ECF0F1"/>
<path d="M786.737 381.294L433.182 727.416H527.464L551.034 704.341L567.534 688.189L833.878 427.444L786.737 381.294Z" fill="#BDC3C7"/>
<path d="M810.306 450.521L716.024 358.222L456.751 612.044L551.032 704.343L810.306 450.521Z" fill="#66A0DA"/>
<path d="M857.448 312.07C831.403 286.573 789.094 286.688 763.167 312.07L739.597 335.145L833.878 427.444L857.448 404.369C883.376 378.987 883.493 337.568 857.448 312.07Z" fill="#A1AAAF"/>
<path d="M433.043 662.668L433.183 727.416L499.322 727.554L466.182 695.111L433.043 662.668Z" fill="#496683"/>
<path d="M466.182 695.111L433.183 727.416L499.322 727.554L466.182 695.111Z" fill="#364C63"/>
<path d="M857.448 312.07C831.403 286.573 789.094 286.688 763.167 312.07L739.597 335.145L786.737 381.294L857.448 312.07Z" fill="#BDC3C7"/>
<path d="M810.306 450.521L763.165 404.371L503.892 658.194L551.032 704.343L810.306 450.521Z" fill="#3B8EDB"/>
<path d="M296.8 312.8H341.4L379 390.6L416.4 312.8H461V453H424.4V369.8L392.4 439.2H365.4L333.4 369.8V453H296.8V312.8ZM586.091 312.8C597.557 312.8 607.891 314.467 617.091 317.8C626.291 321.133 634.157 325.867 640.691 332C647.357 338.133 652.491 345.533 656.091 354.2C659.691 362.733 661.491 372.267 661.491 382.8C661.491 393.333 659.691 402.933 656.091 411.6C652.491 420.133 647.291 427.533 640.491 433.8C633.691 439.933 625.557 444.667 616.091 448C606.757 451.333 596.291 453 584.691 453H524.691V312.8H586.091ZM587.291 420.4C592.091 420.4 596.357 419.533 600.091 417.8C603.957 415.933 607.291 413.4 610.091 410.2C613.024 406.867 615.224 402.933 616.691 398.4C618.291 393.867 619.091 388.8 619.091 383.2C619.091 377.6 618.291 372.533 616.691 368C615.091 363.333 612.757 359.333 609.691 356C606.757 352.533 603.224 349.933 599.091 348.2C594.957 346.467 590.357 345.6 585.291 345.6H566.291V420.4H587.291Z" fill="#2F3737"/>
</svg>
